<svg width="104" height="104" viewBox="0 0 104 104" fill="none" xmlns="http://www.w3.org/2000/svg">
<path d="M99.125 77.625H94.25V72.75V55.25V48.75C94.25 47.8526 93.5232 47.125 92.625 47.125H86.125V43.875H91C91.8982 43.875 92.625 43.1474 92.625 42.25V32.5C92.625 31.6026 91.8982 30.875 91 30.875H63.375V26C63.375 25.1026 62.6482 24.375 61.75 24.375H56.875V21.125H58.5C59.3982 21.125 60.125 20.3974 60.125 19.5V9.75C60.125 8.8526 59.3982 8.125 58.5 8.125H13C12.1026 8.125 11.375 8.8526 11.375 9.75V19.5C11.375 20.3974 12.1026 21.125 13 21.125H14.625V24.375H9.75C8.8526 24.375 8.125 25.1026 8.125 26V77.625H4.875C3.9776 77.625 3.25 78.3518 3.25 79.25C3.25 80.1482 3.9776 80.875 4.875 80.875H9.75H56.875H61.75H92.625H99.125C100.023 80.875 100.75 80.1482 100.75 79.25C100.75 78.3518 100.023 77.625 99.125 77.625ZM60.125 48.75V59.75H27.625V45.5H60.125V48.75ZM63.375 61.375V56.875H91V71.125H63.375V61.375ZM91 53.625H63.375V50.375H84.5H91V53.625ZM82.875 47.125H63.375V43.875H82.875V47.125ZM89.375 34.125V40.625H84.5H63.375V34.125H89.375ZM14.625 11.375H56.875V17.875H55.25H16.25H14.625V11.375ZM17.875 21.125H53.625V24.375H17.875V21.125ZM56.875 77.625H11.375V27.625H16.25H55.25H60.125V32.5V42.25H26C25.1026 42.25 24.375 42.9776 24.375 43.875V61.375C24.375 62.2732 25.1026 63 26 63H60.125V77.625H56.875ZM63.375 77.625V74.375H91V77.625H63.375Z" fill="#B3DB11"/>
</svg>
