<svg width="104" height="104" viewBox="0 0 104 104" fill="none" xmlns="http://www.w3.org/2000/svg">
<g clip-path="url(#clip0_1378_13911)">
<path d="M1.97012 52.294L10.2586 55.5639C11.3539 55.9958 12.548 55.7677 13.4022 55.0519L19.9659 59.1913L21.0917 59.9827C19.6637 62.2427 20.0295 65.331 22.2007 67.1719C23.3937 68.1835 24.9096 68.6151 26.3934 68.4534C26.4806 70.0132 27.1899 71.4024 28.3442 72.3808C29.4787 73.3428 30.9597 73.8354 32.5367 73.6634C32.6245 75.2226 33.3334 76.6113 34.4877 77.59C35.6327 78.5609 37.1166 79.0431 38.6829 78.8723C38.7647 80.3411 39.4235 81.7749 40.6312 82.7991C42.9643 84.7777 46.4741 84.4907 48.4523 82.1578L49.7694 80.6119L51.9889 82.2499C55.8264 85.0824 61.2502 82.7619 61.7505 78.0537C65.707 79.4914 69.908 76.7186 69.9689 72.4603C73.6983 73.1614 77.0076 70.4528 77.2154 66.8599C82.0528 68.152 86.4283 63.2636 84.2923 58.4837L90.2235 54.6741C91.0728 55.6801 92.4841 56.0602 93.7424 55.5637L102.031 52.294C103.626 51.6648 104.413 49.8547 103.783 48.259L99.9948 38.6565C99.686 37.8736 98.801 37.4897 98.0186 37.7985C97.2358 38.1072 96.8516 38.992 97.1604 39.7747L100.948 49.377C100.961 49.4097 100.945 49.4468 100.913 49.4599L92.6242 52.7295C92.5913 52.7423 92.5546 52.7265 92.5415 52.6938C92.2513 51.9581 82.948 28.3753 82.1253 26.29C82.1223 26.2827 82.1156 26.2657 82.1261 26.2415C82.1367 26.2173 82.154 26.2106 82.1611 26.2076L90.4498 22.9377C90.4569 22.9346 90.4737 22.9279 90.4985 22.9385C90.5225 22.949 90.5292 22.9661 90.5322 22.9734L94.5482 33.1528C94.8572 33.9356 95.742 34.3196 96.5244 34.0108C97.3073 33.7021 97.6914 32.8172 97.3826 32.0346L93.3666 21.8554C92.7376 20.2601 90.9273 19.474 89.332 20.1035L81.0431 23.3734C79.5621 23.9576 78.7803 25.5468 79.1776 27.0534L74.7342 28.6934C73.3516 29.2039 71.8505 29.3519 70.3937 29.121L65.9022 28.409C65.0714 28.2776 64.2906 28.8445 64.1591 29.6751C64.0275 30.5061 64.5942 31.2867 65.4252 31.4183L69.9167 32.1303C71.8876 32.4425 73.9181 32.2424 75.7895 31.5516L80.273 29.8965C80.7597 31.1303 88.4397 50.5973 88.9436 51.8748L82.4062 56.0736L82.2953 55.9917C82.2949 55.9913 82.2943 55.9909 82.2939 55.9907C81.5935 55.4738 70.2265 47.0851 69.6931 46.6913C69.3665 46.4502 68.9606 46.3419 68.4938 46.4211C62.1827 47.4942 56.5284 45.2501 52.3686 40.9067C51.0743 39.5553 48.9626 39.4828 47.5604 40.7417C43.5249 44.3661 37.8856 47.9003 33.9399 44.1504C33.5479 43.778 33.545 43.0903 34.1404 42.706C39.1665 39.4728 44.3732 34.9332 48.5632 30.6944C49.6061 29.6392 51.106 29.1486 52.578 29.382L58.3608 30.2987C59.1934 30.4305 59.9721 29.8634 60.1038 29.0326C60.2354 28.2016 59.6687 27.421 58.8377 27.2894L53.0549 26.3727C50.6166 25.9864 48.1277 26.8013 46.3965 28.5526C45.9119 29.0428 45.3386 29.6119 44.6923 30.2361C42.7415 29.5445 40.7082 29.1313 38.64 29.0152C32.5861 28.6751 32.061 28.6109 30.6862 28.6993C29.6073 28.7682 28.5096 28.5847 27.5112 28.1671L24.8263 27.0436C25.2139 25.5458 24.4333 23.9547 22.9582 23.373L14.6697 20.1035C13.0737 19.4738 11.2639 20.2599 10.6346 21.8554L0.218173 48.259C-0.412529 49.858 0.370516 51.6631 1.97012 52.294ZM27.7003 64.5573C26.8076 65.6103 25.2246 65.7409 24.1712 64.848C23.1109 63.9489 22.9907 62.3686 23.8785 61.3215L27.6467 56.8987C28.5183 55.8703 30.1055 55.7009 31.1758 56.608C32.2312 57.5028 32.3616 59.0815 31.4662 60.1371C31.4658 60.1375 31.4656 60.1379 31.4652 60.1383L27.7003 64.5573ZM33.8436 69.7666C32.9489 70.8219 31.3708 70.9523 30.3147 70.0571C29.2544 69.1581 29.1342 67.5778 30.022 66.5306L33.7902 62.1078C34.726 61.0036 36.4605 60.9071 37.5047 61.9914C37.5116 61.9985 37.5175 62.0065 37.5244 62.0138C38.3845 62.9284 38.4405 64.3666 37.6098 65.3464L33.8436 69.7666ZM39.9871 74.9756C39.0891 76.0348 37.5094 76.1573 36.4582 75.266C35.3979 74.3672 35.2775 72.7869 36.1653 71.7398L39.9337 67.3167C40.8289 66.2613 42.4177 66.1394 43.4628 67.0263C44.5158 67.9194 44.646 69.5024 43.7533 70.5554C43.7528 70.5558 43.7526 70.5562 43.7522 70.5566L39.9871 74.9756ZM49.9173 75.7377C49.911 75.7454 49.9055 75.7539 49.899 75.7614C49.2912 76.4748 47.6165 78.4405 46.1306 80.1845C45.2379 81.2377 43.6549 81.3679 42.6017 80.4752C41.5485 79.5822 41.4183 77.9993 42.3088 76.9489L46.0772 72.5259C46.975 71.4668 48.5561 71.3447 49.6061 72.2354C50.6392 73.1109 50.7974 74.6733 49.9173 75.7377ZM23.7315 29.889L26.3349 30.9784C27.7637 31.5762 29.3359 31.8396 30.881 31.7403C32.0462 31.6653 32.4352 31.7185 38.4686 32.0576C39.7074 32.1272 40.9323 32.319 42.1285 32.6302C39.1476 35.322 35.8001 38.0201 32.4471 40.1732C30.2975 41.5532 29.979 44.5903 31.841 46.36C34.386 48.7782 40.0773 51.5581 49.5961 43.0092C49.7668 42.8561 50.0178 42.8581 50.1675 43.0147C54.7785 47.8275 61.3142 50.5159 68.3722 49.524C69.1719 50.0861 67.6234 48.9514 80.4841 58.4428C81.8604 59.4585 82.2456 61.456 81.168 62.8346C80.1444 64.1441 78.295 64.3978 76.9586 63.4113C75.1533 62.0788 76.4862 63.093 70.1395 58.2027C69.4725 57.689 68.5164 57.8131 68.0027 58.4796C67.4894 59.146 67.6133 60.1026 68.2795 60.6163L73.5451 64.6735C74.4523 65.8687 74.3442 67.5958 73.2703 68.6671C72.2145 69.7207 70.4765 69.8202 69.2275 68.8989C68.0199 68.0078 69.0232 68.7713 63.4848 64.5073C62.8181 63.9938 61.8614 64.1185 61.3483 64.7852C60.835 65.4518 60.9593 66.4084 61.626 66.9217L66.295 70.5164C67.1768 71.6569 67.1335 73.2973 66.1707 74.3889C65.1348 75.5634 63.2993 75.7269 61.9916 74.7617C59.8903 73.211 60.9449 74.0117 56.8983 70.8797C56.2328 70.3648 55.2761 70.4867 54.761 71.1521C54.2461 71.8176 54.3679 72.7743 55.0334 73.2892L58.2702 75.7943C59.0065 76.9662 58.8623 78.501 57.894 79.5138C56.8371 80.6194 55.0762 80.7419 53.7978 79.7983L51.7499 78.2871L52.2203 77.7348C53.1583 76.629 53.6426 75.1968 53.5187 73.6898C53.3927 72.1633 52.6674 70.8369 51.5764 69.9114C50.4415 68.9492 48.9593 68.4563 47.3827 68.6273C47.2998 67.1555 46.6248 65.7135 45.4329 64.7023C44.3023 63.7438 42.867 63.2831 41.3877 63.4039C41.3383 63.408 41.2889 63.4127 41.24 63.4182C41.2371 63.3694 41.2355 63.3207 41.2315 63.2717C41.1346 62.0938 40.6755 61.0028 39.9209 60.1227C39.9162 60.1172 39.912 60.1117 39.9073 60.1062C38.7068 58.7175 36.9197 58.0159 35.0983 58.2117C35.0126 56.6819 34.3191 55.2792 33.1459 54.2843C30.811 52.3048 27.3016 52.5937 25.3246 54.9255L23.0287 57.6204L21.6866 56.6771C21.6659 56.6624 21.6448 56.6482 21.6232 56.6348L14.862 52.3706C19.9737 39.4139 18.059 44.2672 23.7315 29.889ZM3.05237 49.3774L13.4686 22.9738C13.4786 22.9486 13.5025 22.9334 13.5279 22.9334C13.5356 22.9334 13.5436 22.9348 13.5513 22.9379L21.8398 26.2078C21.8725 26.2206 21.8885 26.2577 21.8757 26.2902C21.3746 27.5606 11.7871 51.863 11.4593 52.694C11.4459 52.7271 11.4101 52.7427 11.3768 52.7297L3.08832 49.4599C3.05542 49.4468 3.03917 49.4101 3.05237 49.3774Z" fill="#B3DB11"/>
</g>
<defs>
<clipPath id="clip0_1378_13911">
<rect width="104" height="104" fill="white"/>
</clipPath>
</defs>
</svg>
