<svg width="365" height="359" viewBox="0 0 365 359" fill="none" xmlns="http://www.w3.org/2000/svg">
<path d="M357.543 70.802H6.90459C6.04035 70.802 5.33984 71.5025 5.33984 72.3667V285.192C5.33984 286.057 6.04035 286.757 6.90459 286.757H125.566C125.981 286.757 126.379 286.922 126.672 287.216L181.118 352.338C181.729 352.949 182.72 352.949 183.33 352.338L237.776 287.216C238.069 286.922 238.467 286.757 238.882 286.757H357.544C358.408 286.757 359.108 286.057 359.108 285.192V72.366C359.107 71.5018 358.407 70.802 357.543 70.802Z" fill="#F9F6F9"/>
<path d="M260.463 35.9881L230.036 5.56101C229.736 5.26059 229.25 5.26059 228.949 5.56101L182.766 51.7444C182.465 52.0448 181.979 52.0448 181.679 51.7444L135.495 5.56101C135.195 5.26059 134.709 5.26059 134.408 5.56101L103.981 35.9881C103.681 36.2885 103.681 36.7747 103.981 37.0751L150.165 83.2585C150.466 83.5589 150.466 84.0452 150.165 84.3456L103.981 130.53C103.681 130.83 103.681 131.316 103.981 131.617L134.408 162.044C134.709 162.344 135.195 162.344 135.495 162.044L181.679 115.86C181.979 115.56 182.465 115.56 182.766 115.86L228.949 162.044C229.25 162.344 229.736 162.344 230.036 162.044L260.463 131.617C260.764 131.316 260.764 130.83 260.463 130.53L214.28 84.3449C213.979 84.0444 213.979 83.5582 214.28 83.2578L260.463 37.0744C260.764 36.7747 260.764 36.2878 260.463 35.9881Z" fill="#FCA600"/>
<path d="M45.3451 223.417H122.536C125.875 223.417 128.592 220.7 128.592 217.361V199.138C128.592 195.799 125.875 193.082 122.536 193.082H45.3451C42.0056 193.082 39.2891 195.799 39.2891 199.138V217.361C39.2891 220.7 42.0056 223.417 45.3451 223.417ZM49.9675 203.761H117.913V212.738H49.9675V203.761Z" fill="black"/>
<path d="M210.991 223.417C214.33 223.417 217.047 220.7 217.047 217.361V199.138C217.047 195.799 214.33 193.082 210.991 193.082H143.628C140.289 193.082 137.572 195.799 137.572 199.138V217.361C137.572 220.7 140.289 223.417 143.628 223.417H210.991ZM148.251 203.761H206.369V212.738H148.251V203.761Z" fill="black"/>
<path d="M83.9412 252.051C80.9925 252.051 78.602 254.441 78.602 257.39C78.602 260.338 80.9925 262.729 83.9412 262.729H319.815C322.764 262.729 325.154 260.338 325.154 257.39V237.734C325.154 234.785 322.764 232.395 319.815 232.395H44.6283C41.6796 232.395 39.2891 234.785 39.2891 237.734V257.39C39.2891 260.338 41.6796 262.729 44.6283 262.729H59.0242C61.9728 262.729 64.3634 260.338 64.3634 257.39C64.3634 254.441 61.9728 252.051 59.0242 252.051H49.9675V243.073H314.476V252.051H83.9412Z" fill="black"/>
<path d="M357.542 65.4619H309.988C307.04 65.4619 304.649 67.8525 304.649 70.8011C304.649 73.7498 307.04 76.1403 309.988 76.1403H353.768V281.417H238.881C237.036 281.417 235.301 282.136 233.997 283.441C233.886 283.553 233.779 283.669 233.679 283.79L182.223 345.336L130.768 283.79C130.667 283.669 130.561 283.553 130.45 283.441C129.145 282.136 127.411 281.417 125.566 281.417H10.6784V76.1403H135.497L143.158 83.8017L100.207 126.753C97.827 129.133 97.8256 133.007 100.207 135.391L130.636 165.82C133.017 168.197 136.89 168.197 139.271 165.818L182.223 122.866L225.176 165.82C227.555 168.197 231.43 168.198 233.812 165.818L264.241 135.388C266.62 133.006 266.618 129.133 264.239 126.753L221.287 83.8017L228.949 76.1403H285.071C288.02 76.1403 290.411 73.7498 290.411 70.8011C290.411 67.8525 288.02 65.4619 285.071 65.4619H239.627L264.241 40.8475C266.619 38.4669 266.619 34.5942 264.239 32.2122L233.81 1.78374C231.43 -0.593987 227.557 -0.593986 225.175 1.78587L182.223 44.7373L175.887 38.4007C173.802 36.3156 170.421 36.3156 168.337 38.4007C166.251 40.4858 166.251 43.8666 168.337 45.951L177.905 55.5196C180.291 57.9059 184.156 57.9073 186.542 55.5196L229.494 12.5682L253.457 36.5313C226.386 63.6032 252.078 37.9102 210.506 79.4834C208.119 81.8689 208.118 85.7338 210.506 88.1208L253.457 131.072L229.494 155.035L186.544 112.085C184.155 109.693 180.287 109.698 177.904 112.083L134.953 155.035L110.99 131.071L153.94 88.1215C156.332 85.7324 156.328 81.8647 153.942 79.482C149.308 74.8482 115.598 41.1379 110.991 36.5306L134.954 12.5675L149.945 27.5579C152.03 29.643 155.411 29.643 157.495 27.5579C159.58 25.4727 159.58 22.0919 157.495 20.0075L139.271 1.78303C136.89 -0.594698 133.017 -0.594698 130.635 1.78516L100.206 32.2143C97.8284 34.5949 97.8284 38.4676 100.208 40.8496L124.821 65.4619H6.90394C3.09745 65.4619 0 68.5594 0 72.3659V285.191C0 288.998 3.09745 292.095 6.90394 292.095H123.793L177.021 355.762C177.122 355.883 177.229 355.999 177.341 356.111C180.039 358.811 184.408 358.811 187.106 356.111C187.217 355.999 187.324 355.883 187.425 355.762L240.654 292.095H357.542C361.349 292.095 364.446 288.998 364.446 285.191V72.3659C364.445 68.5594 361.349 65.4619 357.542 65.4619Z" fill="black"/>
</svg>
