<svg width="10" height="10" viewBox="0 0 10 10" fill="none" xmlns="http://www.w3.org/2000/svg">
<mask id="path-1-outside-1_3302_893" maskUnits="userSpaceOnUse" x="-0.0634766" y="1.81201" width="10" height="6" fill="black">
<rect fill="white" x="-0.0634766" y="1.81201" width="10" height="6"/>
<path fillRule="evenodd" clipRule="evenodd" d="M1.02833 2.90382C1.05736 2.87472 1.09185 2.85163 1.12981 2.83587C1.16778 2.82012 1.20848 2.81201 1.24958 2.81201C1.29069 2.81201 1.33139 2.82012 1.36935 2.83587C1.40732 2.85163 1.4418 2.87472 1.47083 2.90382L4.99958 6.4332L8.52833 2.90382C8.55739 2.87477 8.59188 2.85172 8.62984 2.83599C8.66781 2.82027 8.70849 2.81218 8.74958 2.81218C8.79067 2.81218 8.83136 2.82027 8.86932 2.83599C8.90728 2.85172 8.94178 2.87477 8.97083 2.90382C8.99989 2.93288 9.02294 2.96737 9.03866 3.00533C9.05438 3.04329 9.06248 3.08398 9.06248 3.12507C9.06248 3.16616 9.05438 3.20685 9.03866 3.24481C9.02294 3.28277 8.99989 3.31727 8.97083 3.34632L5.22083 7.09632C5.1918 7.12542 5.15732 7.14851 5.11935 7.16427C5.08139 7.18002 5.04069 7.18813 4.99958 7.18813C4.95848 7.18813 4.91778 7.18002 4.87981 7.16427C4.84185 7.14851 4.80736 7.12542 4.77833 7.09632L1.02833 3.34632C0.99923 3.31729 0.976141 3.28281 0.960387 3.24484C0.944633 3.20688 0.936523 3.16617 0.936523 3.12507C0.936523 3.08397 0.944633 3.04326 0.960387 3.0053C0.976141 2.96733 0.99923 2.93285 1.02833 2.90382Z"/>
</mask>
<path fillRule="evenodd" clipRule="evenodd" d="M1.02833 2.90382C1.05736 2.87472 1.09185 2.85163 1.12981 2.83587C1.16778 2.82012 1.20848 2.81201 1.24958 2.81201C1.29069 2.81201 1.33139 2.82012 1.36935 2.83587C1.40732 2.85163 1.4418 2.87472 1.47083 2.90382L4.99958 6.4332L8.52833 2.90382C8.55739 2.87477 8.59188 2.85172 8.62984 2.83599C8.66781 2.82027 8.70849 2.81218 8.74958 2.81218C8.79067 2.81218 8.83136 2.82027 8.86932 2.83599C8.90728 2.85172 8.94178 2.87477 8.97083 2.90382C8.99989 2.93288 9.02294 2.96737 9.03866 3.00533C9.05438 3.04329 9.06248 3.08398 9.06248 3.12507C9.06248 3.16616 9.05438 3.20685 9.03866 3.24481C9.02294 3.28277 8.99989 3.31727 8.97083 3.34632L5.22083 7.09632C5.1918 7.12542 5.15732 7.14851 5.11935 7.16427C5.08139 7.18002 5.04069 7.18813 4.99958 7.18813C4.95848 7.18813 4.91778 7.18002 4.87981 7.16427C4.84185 7.14851 4.80736 7.12542 4.77833 7.09632L1.02833 3.34632C0.99923 3.31729 0.976141 3.28281 0.960387 3.24484C0.944633 3.20688 0.936523 3.16617 0.936523 3.12507C0.936523 3.08397 0.944633 3.04326 0.960387 3.0053C0.976141 2.96733 0.99923 2.93285 1.02833 2.90382Z" fill="#272727"/>
<path fillRule="evenodd" clipRule="evenodd" d="M1.02833 2.90382C1.05736 2.87472 1.09185 2.85163 1.12981 2.83587C1.16778 2.82012 1.20848 2.81201 1.24958 2.81201C1.29069 2.81201 1.33139 2.82012 1.36935 2.83587C1.40732 2.85163 1.4418 2.87472 1.47083 2.90382L4.99958 6.4332L8.52833 2.90382C8.55739 2.87477 8.59188 2.85172 8.62984 2.83599C8.66781 2.82027 8.70849 2.81218 8.74958 2.81218C8.79067 2.81218 8.83136 2.82027 8.86932 2.83599C8.90728 2.85172 8.94178 2.87477 8.97083 2.90382C8.99989 2.93288 9.02294 2.96737 9.03866 3.00533C9.05438 3.04329 9.06248 3.08398 9.06248 3.12507C9.06248 3.16616 9.05438 3.20685 9.03866 3.24481C9.02294 3.28277 8.99989 3.31727 8.97083 3.34632L5.22083 7.09632C5.1918 7.12542 5.15732 7.14851 5.11935 7.16427C5.08139 7.18002 5.04069 7.18813 4.99958 7.18813C4.95848 7.18813 4.91778 7.18002 4.87981 7.16427C4.84185 7.14851 4.80736 7.12542 4.77833 7.09632L1.02833 3.34632C0.99923 3.31729 0.976141 3.28281 0.960387 3.24484C0.944633 3.20688 0.936523 3.16617 0.936523 3.12507C0.936523 3.08397 0.944633 3.04326 0.960387 3.0053C0.976141 2.96733 0.99923 2.93285 1.02833 2.90382Z" stroke="#272727" stroke-width="0.5" mask="url(#path-1-outside-1_3302_893)"/>
</svg>
