<svg width="14" height="12" viewBox="0 0 14 12" fill="none" xmlns="http://www.w3.org/2000/svg">
<g clip-path="url(#clip0_722_6959)">
<path d="M12.338 0.684082H1.662C0.745 0.684082 0 1.39908 0 2.27908V9.72108C0 10.6011 0.745 11.3171 1.662 11.3171H12.338C13.255 11.3171 14 10.6011 14 9.72108V2.28008C14 1.40008 13.255 0.684082 12.338 0.684082ZM12.338 9.90808H1.662C1.527 9.90808 1.409 9.82108 1.409 9.72108V3.26308L6.238 7.34008C6.33699 7.42378 6.46237 7.46982 6.592 7.47008H7.408C7.53763 7.46982 7.66301 7.42378 7.762 7.34008L12.592 3.26308V9.72108C12.592 9.82108 12.473 9.90808 12.338 9.90808ZM7 6.07108L2.303 2.09208H11.697L7 6.07108Z" fill="#FCA600"/>
</g>
<defs>
<clipPath id="clip0_722_6959">
<rect width="14" height="12" fill="white"/>
</clipPath>
</defs>
</svg>
