<svg width="18" height="16" viewBox="0 0 18 16" fill="none" xmlns="http://www.w3.org/2000/svg">
<g clip-path="url(#clip0_722_5751)">
<path d="M15.6863 0.341887C15.558 0.228875 15.4026 0.151082 15.2352 0.11611C15.0679 0.0811377 14.8943 0.0901829 14.7315 0.142362L0.66354 4.64391C0.280018 4.76626 0.0202593 5.09849 0.000965559 5.49001C-0.0178576 5.88106 0.208961 6.23588 0.578836 6.39258L3.40372 7.59256L11.7212 3.11171C11.8195 3.0586 11.9333 3.04153 12.0428 3.06344C12.1524 3.08535 12.2509 3.14487 12.3212 3.23171C12.3898 3.31731 12.4245 3.4252 12.4186 3.53475C12.4127 3.64431 12.3666 3.74785 12.2892 3.82558L7.1034 9.08805L6.0399 12.8169L8.59278 10.9619L11.6111 13.3595C11.7389 13.4614 11.8903 13.5297 12.0513 13.5581C12.2124 13.5864 12.3779 13.574 12.5329 13.5218C12.6867 13.4729 12.8254 13.3854 12.9356 13.2676C13.0458 13.1497 13.124 13.0056 13.1626 12.8489L15.9743 1.24728C16.0543 0.917404 15.9437 0.570588 15.6863 0.341887Z" fill="#FCA600"/>
</g>
<defs>
<clipPath id="clip0_722_5751">
<rect width="18" height="15.3529" fill="white"/>
</clipPath>
</defs>
</svg>
