<svg width="18" height="16" viewBox="0 0 18 16" fill="#ffffff" xmlns="http://www.w3.org/2000/svg">
<g clip-path="url(#clip0_3302_704)">
<path d="M15.6864 0.341856C15.5581 0.228845 15.4027 0.151052 15.2353 0.116079C15.068 0.0811072 14.8944 0.0901523 14.7316 0.142331L0.663662 4.64388C0.280141 4.76623 0.0203813 5.09846 0.00108763 5.48998C-0.0177355 5.88103 0.209083 6.23585 0.578958 6.39255L3.40384 7.59253L11.7213 3.11168C11.8196 3.05857 11.9334 3.0415 12.043 3.06341C12.1525 3.08532 12.251 3.14484 12.3213 3.23168C12.3899 3.31728 12.4246 3.42517 12.4187 3.53472C12.4128 3.64428 12.3667 3.74782 12.2893 3.82555L7.10353 9.08802L6.04002 12.8169L8.59291 10.9619L11.6112 13.3595C11.739 13.4614 11.8904 13.5297 12.0514 13.558C12.2125 13.5864 12.3781 13.5739 12.5331 13.5218C12.6868 13.4729 12.8255 13.3854 12.9357 13.2675C13.046 13.1497 13.1241 13.0056 13.1627 12.8489L15.9744 1.24725C16.0544 0.917373 15.9438 0.570557 15.6864 0.341856Z" fill="#ffffff"/>
</g>
<defs>
<clipPath id="clip0_3302_704">
<rect width="18" height="15.3529" fill="#ffffff"/>
</clipPath>
</defs>
</svg>
